<svg id="Layer_1" data-name="Layer 1" xmlns="http://www.w3.org/2000/svg" viewBox="0 0 86.07 86.18"><defs><style>.cls-1,.cls-4{fill:#2fb44a;}.cls-1,.cls-2{stroke:#010101;stroke-linecap:round;stroke-linejoin:round;stroke-width:3px;}.cls-2{fill:none;}.cls-3{fill:#ed2224;stroke:#040404;stroke-miterlimit:10;}</style></defs><path class="cls-1" d="M64,22.56c.36,2.65.78,5.33.34,7.54a5.2,5.2,0,0,1-2.13,3.28c-.85.6-2.17,1.12-5.74,1.3-16.69.64-21.76,1.34-21.76-5.95.07-4.69,6.21-4.75,6.4-.3,5.61-2.13,11-3,15.69-.41,1.9,0,2.49-.86,2.4-2.1,0-.09,0-.19,0-.28l-.07-3.59Z" transform="translate(-5.34 -4.71)"/><path class="cls-1" d="M59,66.07c-.38,2.79-.82,5.61-.26,7.88a5.06,5.06,0,0,0,2.16,3c.86.56,2.21,1,5.63,1.22C80.76,80,89.91,80,89.91,72.4c-.16-7.84-5.59-8.19-7.67-1.82a1.87,1.87,0,0,1-1.83,1.32,32.93,32.93,0,0,0-14.22-.37c-1.9,0-2.49-.86-2.4-2.1,0-.09,0-.19,0-.28l.07-3.59Z" transform="translate(-5.34 -4.71)"/><path class="cls-1" d="M60.12,18.27l0,5.5A8.06,8.06,0,0,0,61,27.54a5.15,5.15,0,0,0,5,3c.62,0,1.24,0,1.87,0,12.12.19,17.5,1.52,17.69-5.89.19-6.85-5.95-5.84-6.31.36-3-1.59-6.65-1.39-10.59-.12a4,4,0,0,1-1.65-.34c-1.6-.71-2.31-2.28-1.92-4.92Z" transform="translate(-5.34 -4.71)"/><path class="cls-1" d="M55.8,78.17C54.12,21,53,11,60.4,9.81a6,6,0,0,1,2.07-.07c8.83,1.84,7.61,61.57,4.14,67.55h0Z" transform="translate(-5.34 -4.71)"/><path class="cls-1" d="M45,47.79l2.07-6.37c-46-20.74-52.14,62.43-.24,42.33l-1.69-6.38C15.68,93.11,14.1,34.46,45,47.79Z" transform="translate(-5.34 -4.71)"/><line class="cls-2" x1="58.29" y1="52.73" x2="66.09" y2="57.82"/><line class="cls-2" x1="57.78" y1="46.9" x2="66.73" y2="42.21"/><line class="cls-2" x1="59.68" y1="31.19" x2="67.67" y2="32.83"/><line class="cls-2" x1="71.09" y1="23.68" x2="72.99" y2="28.65"/><line class="cls-2" x1="76.8" y1="22.1" x2="83.52" y2="19.82"/><path class="cls-2" d="M73,26.64c.18,0,1.57-5.45,1.57-5.45" transform="translate(-5.34 -4.71)"/><line class="cls-2" x1="57.78" y1="12.8" x2="64.88" y2="11.66"/><line class="cls-2" x1="53.13" y1="16.48" x2="47.01" y2="11.03"/><line class="cls-2" x1="42.32" y1="26.16" x2="40.92" y2="18.13"/><line class="cls-2" x1="37.37" y1="26.37" x2="28.63" y2="30.55"/><line class="cls-2" x1="53.98" y1="34.03" x2="46.25" y2="33.47"/><line class="cls-2" x1="53.98" y1="39.8" x2="47.64" y2="44.56"/><line class="cls-2" x1="53.98" y1="55.78" x2="46.25" y2="55.28"/><line class="cls-2" x1="35.22" y1="39.21" x2="36.87" y2="46.9"/><line class="cls-2" x1="28.63" y1="37.14" x2="24.19" y2="30.01"/><line class="cls-2" x1="19.75" y1="41.07" x2="18.87" y2="31.19"/><line class="cls-2" x1="15.95" y1="43.05" x2="9.23" y2="36.13"/><line class="cls-2" x1="12.59" y1="46.9" x2="5.57" y2="43.05"/><line class="cls-2" x1="9.23" y1="53.5" x2="2.64" y2="57.82"/><line class="cls-2" x1="9.23" y1="63.76" x2="1.5" y2="60.85"/><line class="cls-2" x1="12.59" y1="69.09" x2="9.99" y2="79.86"/><line class="cls-2" x1="22.29" y1="77.2" x2="25.58" y2="84.68"/><line class="cls-2" x1="36.87" y1="76.31" x2="36.87" y2="73.52"/><line class="cls-2" x1="17.09" y1="72.89" x2="22.29" y2="67.18"/><line class="cls-2" x1="11.89" y1="51.59" x2="18.87" y2="57.82"/><line class="cls-2" x1="23.65" y1="40.44" x2="27.23" y2="46.9"/><line class="cls-2" x1="57.78" y1="62.31" x2="64.75" y2="62.31"/><path class="cls-2" d="M58.94,69.61c-.64.13-6,.76-6,.76" transform="translate(-5.34 -4.71)"/><path class="cls-3" d="M65.09,5.79a3.62,3.62,0,1,1-7.23,0c0-2.06,1.64,2.1,1.86.72.15-1,.78-1.82,1.75,0,.31.58,1.43-2.16,2.05,0C63.84,7.66,65.09,5.1,65.09,5.79Z" transform="translate(-5.34 -4.71)"/><path class="cls-3" d="M90.44,62.21a3.62,3.62,0,0,1-7.23,0c0-2.06,1.64,2.09,1.86.71.15-1,.78-1.82,1.75,0,.31.59,1.44-2.15,2.05,0C89.19,64.08,90.44,61.52,90.44,62.21Z" transform="translate(-5.34 -4.71)"/><rect class="cls-4" x="46.51" y="24.8" width="7.24" height="3.68" rx="0.78"/><rect class="cls-4" x="59.12" y="21.38" width="6.97" height="3" rx="0.95"/><path class="cls-4" d="M71.12,72.45l-8,.71L57.25,76.5c2,.84,9.15.66,14.18.21l.5-3.4A.75.75,0,0,0,71.12,72.45Z" transform="translate(-5.34 -4.71)"/><line class="cls-1" x1="51.61" y1="73.46" x2="65.98" y2="74.03"/></svg>